<?xml version="1.0" encoding="iso-8859-1"?>
<!-- Generator: Adobe Illustrator 16.0.0, SVG Export Plug-In . SVG Version: 6.00 Build 0)  -->
<!DOCTYPE svg PUBLIC "-//W3C//DTD SVG 1.1//EN" "http://www.w3.org/Graphics/SVG/1.1/DTD/svg11.dtd">
<svg version="1.1" id="Capa_1" xmlns="http://www.w3.org/2000/svg" xmlns:xlink="http://www.w3.org/1999/xlink" x="0px" y="0px"
	 width="32.75px" height="32.75px" viewBox="0 0 32.75 32.75" style="enable-background:new 0 0 32.75 32.75;" xml:space="preserve"
	>
<g>
	<g>
		<path d="M29.375,1.25h-1.123c0.029-0.092,0.059-0.186,0.059-0.288c0-0.53-0.432-0.962-0.963-0.962s-0.961,0.432-0.961,0.962
			c0,0.103,0.028,0.196,0.059,0.288h-3.68c0.029-0.092,0.059-0.186,0.059-0.288c0-0.53-0.432-0.962-0.963-0.962
			C21.332,0,20.9,0.432,20.9,0.962c0,0.103,0.029,0.196,0.06,0.288h-3.681c0.029-0.092,0.058-0.186,0.058-0.288
			c0-0.53-0.43-0.962-0.961-0.962c-0.531,0-0.961,0.432-0.961,0.962c0,0.103,0.028,0.196,0.058,0.288h-3.681
			c0.029-0.092,0.059-0.186,0.059-0.288C11.851,0.432,11.42,0,10.89,0c-0.531,0-0.962,0.432-0.962,0.962
			c0,0.103,0.028,0.196,0.058,0.288h-3.68c0.03-0.092,0.059-0.186,0.059-0.288C6.365,0.432,5.935,0,5.404,0
			C4.873,0,4.442,0.432,4.442,0.962c0,0.103,0.028,0.196,0.058,0.288H3.375c-1.518,0-2.75,1.234-2.75,2.75v26
			c0,1.518,1.232,2.75,2.75,2.75H26.27l5.855-5.855V4C32.125,2.484,30.893,1.25,29.375,1.25z M30.625,26.273l-0.311,0.311h-2.355
			c-1.102,0-2,0.9-2,2v2.355l-0.311,0.311H3.375c-0.689,0-1.25-0.561-1.25-1.25V5h28.5V26.273z"/>
		<path d="M6.384,11.779H7.73v-0.998h0.598V9.727H7.73V6.988H6.412L4.176,9.646v1.135h2.208V11.779z M5.242,9.728l1.142-1.461v1.461
			H5.242z"/>
		<path d="M6.285,22.338l8.899-4.031c0,4.1,0,8.127,0,8.127l-2.673,2.715v0.502l3.614-1.248l3.613,1.248v-0.504l-2.671-2.715
			c0,0,0-4.026,0-8.125l8.899,4.03v-1.272l-2.298-1.948v-1.877h-1.001v1.026l-2.132-1.806v-1.769h-1.003v0.919l-2.465-2.089
			c0-1.788,0-3.18,0-3.635c0-1.512-0.934-2.907-0.941-2.899c-0.007-0.008-0.941,1.388-0.941,2.899c0,0.455,0,1.847,0,3.635
			L12.72,15.61v-0.919h-1.003v1.769l-2.131,1.806v-1.026H8.584v1.877l-2.298,1.948L6.285,22.338L6.285,22.338z"/>
	</g>
</g>
<g>
</g>
<g>
</g>
<g>
</g>
<g>
</g>
<g>
</g>
<g>
</g>
<g>
</g>
<g>
</g>
<g>
</g>
<g>
</g>
<g>
</g>
<g>
</g>
<g>
</g>
<g>
</g>
<g>
</g>
</svg>
